<?xml version="1.0" encoding="UTF-8" ?>
<!DOCTYPE svg PUBLIC "-//W3C//DTD SVG 1.1//EN" "http://www.w3.org/Graphics/SVG/1.1/DTD/svg11.dtd">
<svg width="459pt" height="288pt" viewBox="0 0 459 288" version="1.1" xmlns="http://www.w3.org/2000/svg">
<path fill="#ffffff" d=" M 0.00 0.00 L 459.00 0.00 L 459.00 288.00 L 456.37 288.00 C 451.44 275.25 441.73 264.64 429.70 258.25 C 418.77 252.27 406.21 249.69 393.81 249.99 C 384.05 233.55 361.95 228.42 344.60 234.42 C 320.77 214.96 283.11 215.18 259.61 235.09 C 251.70 223.24 239.88 214.16 226.48 209.36 C 207.37 202.41 185.31 203.80 167.37 213.45 C 155.35 219.79 145.41 229.93 139.42 242.15 C 126.78 241.00 113.45 244.84 104.47 254.08 C 97.36 250.97 89.60 249.61 81.86 250.04 C 73.13 235.29 54.08 229.37 37.89 233.03 C 26.61 235.39 15.69 242.68 11.58 253.79 C 8.68 261.34 10.04 269.96 14.23 276.76 C 8.70 279.40 3.91 283.29 0.00 288.00 L 0.00 288.00 L 0.00 0.00 Z" />
<path fill="#fd6f2f" d=" M 171.63 2.24 C 171.31 28.48 171.60 54.76 170.80 81.01 C 170.70 99.60 170.65 118.19 170.28 136.78 C 170.84 136.74 171.96 136.65 172.52 136.61 C 173.91 108.06 175.60 79.50 176.90 50.95 C 178.04 42.69 177.20 34.31 178.54 26.07 C 178.30 30.35 178.17 34.65 178.47 38.93 C 178.34 71.24 177.87 103.54 177.65 135.85 C 184.67 136.07 191.70 137.05 198.22 139.76 C 198.25 124.17 199.33 108.62 199.74 93.04 C 199.63 88.12 199.94 83.21 200.60 78.33 C 200.31 83.23 200.25 88.14 200.58 93.03 C 200.75 109.01 200.84 124.99 200.66 140.96 C 201.88 141.32 203.08 141.73 204.28 142.17 C 204.50 128.13 204.64 114.12 205.92 100.13 C 206.77 114.70 206.18 129.31 206.62 143.90 L 204.75 143.27 C 213.42 148.20 219.95 156.63 222.81 166.17 C 224.35 166.07 225.88 165.97 227.42 165.88 C 226.99 127.60 226.64 89.32 226.49 51.05 C 227.78 59.34 226.96 67.76 228.11 76.06 C 229.44 106.24 231.36 136.40 232.69 166.58 C 231.70 166.54 229.73 166.47 228.74 166.44 C 230.69 166.65 232.65 166.84 234.61 167.02 C 234.57 128.66 233.69 90.32 233.53 51.96 C 233.11 43.73 233.98 35.50 233.36 27.26 C 234.57 35.82 234.00 44.48 234.92 53.06 C 236.90 92.19 239.39 131.31 241.45 170.44 C 244.78 172.53 247.55 175.35 249.89 178.49 C 260.11 173.04 273.26 174.10 282.33 181.36 C 292.19 170.34 307.47 164.90 322.10 166.21 C 336.13 167.21 349.98 174.51 357.51 186.60 C 361.55 192.90 363.27 200.46 362.99 207.89 C 374.77 207.95 386.24 215.54 389.91 226.90 C 397.62 226.88 405.45 229.50 410.99 234.98 C 414.93 238.61 417.33 243.56 418.67 248.69 C 413.15 245.72 407.38 243.13 401.22 241.85 C 399.22 241.26 396.79 241.33 395.42 239.53 C 383.94 227.15 365.27 223.47 349.30 227.71 C 339.05 215.25 322.90 208.82 307.04 208.12 C 291.83 207.31 276.06 211.47 264.16 221.20 C 242.81 195.35 204.34 187.50 173.58 199.46 C 157.90 205.39 144.10 216.61 135.97 231.38 C 120.21 229.36 102.84 235.07 93.42 248.34 C 88.02 236.84 76.38 229.29 64.13 226.96 C 56.06 225.25 47.68 225.98 39.77 228.12 C 40.58 224.14 43.06 220.65 46.59 218.62 C 56.02 212.97 67.98 212.86 78.20 216.37 C 81.75 214.29 85.64 212.86 89.70 212.17 C 92.57 199.49 102.26 189.04 114.12 184.09 C 120.44 181.28 127.35 180.11 134.23 179.93 C 133.52 172.55 134.76 164.92 138.42 158.42 C 143.76 148.75 153.16 141.59 163.69 138.45 C 166.06 105.35 167.52 72.14 169.55 39.00 C 169.66 30.62 170.83 22.29 170.76 13.91 C 170.81 10.01 171.23 6.12 171.63 2.24 Z" />
<path fill="#fd6f2f" d=" M 167.37 213.45 C 185.31 203.80 207.37 202.41 226.48 209.36 C 239.88 214.16 251.70 223.24 259.61 235.09 C 283.11 215.18 320.77 214.96 344.60 234.42 C 361.95 228.42 384.05 233.55 393.81 249.99 C 406.21 249.69 418.77 252.27 429.70 258.25 C 441.73 264.64 451.44 275.25 456.37 288.00 L 0.00 288.00 C 3.91 283.29 8.70 279.40 14.23 276.76 C 10.04 269.96 8.68 261.34 11.58 253.79 C 15.69 242.68 26.61 235.39 37.89 233.03 C 54.08 229.37 73.13 235.29 81.86 250.04 C 89.60 249.61 97.36 250.97 104.47 254.08 C 113.45 244.84 126.78 241.00 139.42 242.15 C 145.41 229.93 155.35 219.79 167.37 213.45 Z" />
</svg>
